<?xml version="1.0" standalone="no"?>
<!DOCTYPE svg PUBLIC "-//W3C//DTD SVG 1.1//EN" "http://www.w3.org/Graphics/SVG/1.1/DTD/svg11.dtd">
<svg version="1.1" xmlns="http://www.w3.org/2000/svg" xmlns:xlink="http://www.w3.org/1999/xlink">

  <symbol id="check" viewBox="0 0 200 200">
    <path id="check" d="M30,110 L80,160 M80,160 L180,60"
      stroke-width="20"
      stroke-linecap="round" />
  </symbol>

  <symbol id="x" viewBox="0 0 200 200">
    <path d="M20,20 L180,180 M20,180 L180,20" stroke-width="25" />
  </symbol>

  <symbol id="plus" viewBox="0 0 200 200">
    <path d="M100,20 L100,180 M20,100 L180,100"
      stroke-width="25" stroke-linecap="round" />
  </symbol>

  <symbol id="settings" viewBox="0 0 200 200">
    <path transform="translate(20, 20)" d="M145.1657,60.4794241 L134.180867,66.8139274 C136.262148,75.7690158 136.262148,85.082121 134.180867,94.0372094 L145.1657,100.371713 C149.964897,103.1515 151.606955,109.292346 148.83569,114.09647 L141.294615,127.167667 C138.514827,131.966864 132.373981,133.608922 127.569858,130.837657 L116.585025,124.503154 C109.879193,130.82756 101.813299,135.531232 93.0065957,138.253048 L93.0065957,150.821507 C93.0065957,156.374601 88.5049232,160.876274 82.9518286,160.876274 L67.869678,160.876274 C62.3165834,160.876274 57.8149109,156.374601 57.8149109,150.821507 L57.8149109,138.253048 C49.0197901,135.568019 40.9548749,130.907909 34.236482,124.628838 L23.2516489,130.963342 C18.4475251,133.734606 12.3066796,132.092549 9.52689183,127.293352 L1.9858165,114.222154 C-0.785448322,109.418031 0.856609275,103.277185 5.6558065,100.497397 L16.6406396,94.162894 C14.5593584,85.2078056 14.5593584,75.8947004 16.6406396,66.939612 L5.6558065,60.6051087 C0.856609275,57.825321 -0.785448322,51.6844754 1.9858165,46.8803516 L9.52689183,33.8091544 C12.3066796,29.0099572 18.4475251,27.3678996 23.2516489,30.1391644 L34.236482,36.4736677 C40.9322163,30.1129757 48.9988995,25.3744444 57.8149109,22.623226 L57.8149109,10.0547671 C57.8149109,4.50167257 62.3165834,0 67.869678,0 L82.9518286,0 C88.5049232,0 93.0065957,4.50167257 93.0065957,10.0547671 L93.0065957,22.623226 C101.801716,25.3082543 109.866632,29.9683652 116.585025,36.2474354 L127.569858,29.9129321 C132.373981,27.1416673 138.514827,28.7837249 141.294615,33.5829221 L148.83569,46.6541194 C150.198677,48.9703161 150.577705,51.735758 149.888184,54.3332689 C149.198663,56.9307797 147.497986,59.1441544 145.1657,60.4794241 Z M110.602438,80.4381369 C110.602438,61.002306 94.8465842,45.246452 75.4107533,45.246452 C55.9749224,45.246452 40.2190684,61.002306 40.2190684,80.4381369 C40.2190684,99.8739677 55.9749224,115.629822 75.4107533,115.629822 C94.8465842,115.629822 110.602438,99.8739677 110.602438,80.4381369 Z" id="Shape"></path>
  </symbol>

</svg>
